
            <svg data-logo="logo" xmlns="http://www.w3.org/2000/svg" viewBox="0 0 184 40">
                <g id="logogram" transform="translate(0, 0)"><path d="M13.399 7.16547C13.399 5.44156 12.7143 3.78825 11.4953 2.56927C10.2763 1.35028 8.62296 0.665466 6.89905 0.665466C5.17514 0.665466 3.52184 1.35028 2.30285 2.56927C1.08387 3.78825 0.399048 5.44156 0.399048 7.16547V26.8208L5.75199 30.6563V40H8.04611V30.6563L13.399 26.8208V7.16547ZM11.1049 18.1581L8.04611 21.2169V18.3493L11.1049 15.2905V18.1581ZM2.74096 15.2905L5.79978 18.3493V21.2169L2.74096 18.1581V15.2905ZM11.1049 12.0405L6.89905 16.2463L2.69317 11.9449V9.07723L6.89905 13.2831L11.1049 9.07723V12.0405ZM6.89905 2.95958C7.82404 2.96367 8.72219 3.27088 9.45591 3.83413C10.1897 4.39739 10.7185 5.18563 10.9615 6.07815L6.89905 10.1287L2.83655 6.07815C3.07067 5.17675 3.59572 4.37781 4.33027 3.80531C5.06482 3.2328 5.96777 2.91871 6.89905 2.91178V2.95958ZM2.69317 25.6618V21.3603L5.75199 24.4191V27.8364L2.69317 25.6618ZM8.04611 27.8484V24.4191L11.1049 21.3603V25.6498L8.04611 27.8484Z" fill="#2D4A3D"/></g>
                <g id="logotype" transform="translate(20, 2.5)"><path fill="#2d4a3d" d="M25.57 10.22L25.57 10.22Q25.43 11.65 25.37 13.00Q25.32 14.35 25.32 15.05L25.32 15.05Q25.32 15.71 25.36 16.33Q25.39 16.94 25.43 17.36L25.43 17.36L24.62 17.36Q24.34 14.94 23.71 13.56Q23.08 12.18 22.01 11.60Q20.95 11.02 19.23 11.02L19.23 11.02L17.30 11.02Q16.26 11.02 15.70 11.20Q15.14 11.37 14.94 11.93Q14.75 12.49 14.75 13.65L14.75 13.65L14.75 31.57Q14.75 32.69 14.94 33.27Q15.14 33.84 15.70 34.02Q16.26 34.20 17.30 34.20L17.30 34.20L19.30 34.20Q21.09 34.20 22.29 33.53Q23.50 32.87 24.24 31.34Q24.97 29.82 25.32 27.16L25.32 27.16L26.13 27.16Q26.02 28.24 26.02 29.96L26.02 29.96Q26.02 30.70 26.07 32.09Q26.13 33.49 26.27 35L26.27 35Q24.48 34.93 22.24 34.91Q20 34.90 18.25 34.90L18.25 34.90Q17.45 34.90 16.13 34.90Q14.82 34.90 13.30 34.91Q11.78 34.93 10.22 34.95Q8.66 34.97 7.26 35L7.26 35L7.26 34.30Q8.41 34.23 8.99 34.02Q9.57 33.81 9.76 33.18Q9.96 32.55 9.96 31.29L9.96 31.29L9.96 13.93Q9.96 12.63 9.76 12.02Q9.57 11.41 8.99 11.18Q8.41 10.95 7.26 10.92L7.26 10.92L7.26 10.22Q8.66 10.25 10.22 10.27Q11.78 10.29 13.30 10.31Q14.82 10.32 16.13 10.32Q17.45 10.32 18.25 10.32L18.25 10.32Q19.86 10.32 21.91 10.31Q23.96 10.29 25.57 10.22ZM13.70 22.19L19.93 22.19Q19.93 22.19 19.93 22.54Q19.93 22.89 19.93 22.89L19.93 22.89L13.70 22.89Q13.70 22.89 13.70 22.54Q13.70 22.19 13.70 22.19L13.70 22.19ZM20.14 17.57L20.95 17.57Q20.80 19.56 20.82 20.61Q20.84 21.66 20.84 22.54L20.84 22.54Q20.84 23.41 20.88 24.46Q20.91 25.52 21.05 27.51L21.05 27.51L20.25 27.51Q20.07 26.32 19.70 25.25Q19.34 24.18 18.55 23.54Q17.76 22.89 16.29 22.89L16.29 22.89L16.29 22.19Q17.38 22.19 18.06 21.73Q18.74 21.28 19.16 20.56Q19.58 19.84 19.81 19.06Q20.04 18.27 20.14 17.57L20.14 17.57ZM37.75 16.41L37.75 16.41Q39.04 16.41 40.14 16.71Q41.25 17.01 42.05 17.53L42.05 17.53Q42.89 18.06 43.38 18.85Q43.87 19.63 43.87 20.58L43.87 20.58Q43.87 21.73 43.17 22.43Q42.47 23.13 41.42 23.13L41.42 23.13Q40.34 23.13 39.65 22.50Q38.97 21.88 38.97 20.82L38.97 20.82Q38.97 19.81 39.57 19.14Q40.16 18.48 41.00 18.27L41.00 18.27Q40.69 17.81 40.02 17.52Q39.36 17.22 38.55 17.22L38.55 17.22Q37.50 17.22 36.66 17.76Q35.82 18.30 35.21 19.37Q34.60 20.44 34.26 22.00Q33.93 23.55 33.93 25.59L33.93 25.59Q33.93 28.42 34.61 30.06Q35.30 31.71 36.38 32.39Q37.47 33.08 38.69 33.08L38.69 33.08Q39.43 33.08 40.27 32.80Q41.11 32.52 41.93 31.85Q42.75 31.18 43.42 29.96L43.42 29.96L44.08 30.20Q43.70 31.43 42.84 32.66Q41.98 33.88 40.62 34.69Q39.25 35.49 37.29 35.49L37.29 35.49Q35.05 35.49 33.23 34.46Q31.41 33.42 30.34 31.32Q29.28 29.23 29.28 26.11L29.28 26.11Q29.28 23.03 30.36 20.88Q31.45 18.72 33.39 17.57Q35.33 16.41 37.75 16.41ZM54.93 16.41L54.93 16.41Q57.35 16.41 59.22 17.38Q61.09 18.34 62.19 20.44Q63.30 22.54 63.30 25.97L63.30 25.97Q63.30 29.40 62.19 31.50Q61.09 33.60 59.22 34.55Q57.35 35.49 54.93 35.49L54.93 35.49Q52.52 35.49 50.63 34.55Q48.74 33.60 47.65 31.50Q46.57 29.40 46.57 25.97L46.57 25.97Q46.57 22.54 47.65 20.44Q48.74 18.34 50.63 17.38Q52.52 16.41 54.93 16.41ZM54.93 17.11L54.93 17.11Q53.29 17.11 52.25 19.20Q51.22 21.28 51.22 25.97L51.22 25.97Q51.22 30.66 52.25 32.73Q53.29 34.79 54.93 34.79L54.93 34.79Q56.54 34.79 57.59 32.73Q58.64 30.66 58.64 25.97L58.64 25.97Q58.64 21.28 57.59 19.20Q56.54 17.11 54.93 17.11ZM86.61 10.22L86.61 10.22Q86.47 11.83 86.41 13.35Q86.36 14.87 86.36 15.68L86.36 15.68Q86.36 16.48 86.40 17.18Q86.43 17.88 86.47 18.41L86.47 18.41L85.66 18.41Q85.17 15.61 84.47 14.02Q83.77 12.42 82.63 11.72Q81.50 11.02 79.64 11.02L79.64 11.02L78.52 11.02L78.52 30.98Q78.52 32.41 78.78 33.11Q79.05 33.81 79.85 34.04Q80.66 34.27 82.20 34.30L82.20 34.30L82.20 35Q81.15 34.93 79.47 34.91Q77.79 34.90 76.04 34.90L76.04 34.90Q74.22 34.90 72.62 34.91Q71.03 34.93 70.05 35L70.05 35L70.05 34.30Q71.56 34.27 72.36 34.04Q73.17 33.81 73.45 33.11Q73.73 32.41 73.73 30.98L73.73 30.98L73.73 11.02L72.57 11.02Q70.75 11.02 69.60 11.72Q68.44 12.42 67.74 14.02Q67.04 15.61 66.59 18.41L66.59 18.41L65.78 18.41Q65.85 17.88 65.87 17.18Q65.89 16.48 65.89 15.68L65.89 15.68Q65.89 14.87 65.83 13.35Q65.78 11.83 65.64 10.22L65.64 10.22Q67.18 10.25 69.04 10.29Q70.89 10.32 72.75 10.32Q74.60 10.32 76.14 10.32L76.14 10.32Q77.65 10.32 79.50 10.32Q81.36 10.32 83.21 10.29Q85.07 10.25 86.61 10.22ZM100.05 16.41L100.05 16.41Q101.13 16.41 101.85 16.87Q102.57 17.32 102.92 18.02Q103.27 18.72 103.27 19.49L103.27 19.49Q103.27 20.65 102.58 21.42Q101.90 22.19 100.78 22.19L100.78 22.19Q99.73 22.19 99.07 21.63Q98.40 21.07 98.40 20.09L98.40 20.09Q98.40 19.21 98.84 18.62Q99.28 18.02 99.84 17.67L99.84 17.67Q99.45 17.46 98.96 17.53L98.96 17.53Q98.12 17.60 97.42 18.13Q96.72 18.65 96.23 19.42Q95.74 20.20 95.48 21.07Q95.22 21.95 95.22 22.75L95.22 22.75L95.22 31.39Q95.22 33.11 96.09 33.69Q96.97 34.27 98.65 34.27L98.65 34.27L98.65 35Q97.84 34.97 96.32 34.91Q94.80 34.86 93.15 34.86L93.15 34.86Q91.79 34.86 90.44 34.91Q89.09 34.97 88.43 35L88.43 35L88.43 34.27Q89.72 34.27 90.26 33.74Q90.81 33.22 90.81 31.75L90.81 31.75L90.81 20.72Q90.81 19.14 90.30 18.39Q89.79 17.64 88.43 17.64L88.43 17.64L88.43 16.90Q89.55 17.01 90.60 17.01L90.60 17.01Q91.89 17.01 93.06 16.89Q94.24 16.76 95.22 16.52L95.22 16.52L95.22 20.16Q95.64 19.18 96.32 18.34Q97.00 17.50 97.96 16.96Q98.93 16.41 100.05 16.41ZM113.31 16.41L113.31 16.41Q116.39 16.41 118.14 18.27Q119.89 20.13 119.89 24.18L119.89 24.18L108.10 24.18L108.06 23.52L115.83 23.52Q115.90 21.80 115.62 20.35Q115.34 18.90 114.73 18.02Q114.12 17.15 113.14 17.15L113.14 17.15Q111.81 17.15 110.83 18.71Q109.85 20.27 109.60 23.80L109.60 23.80L109.74 24.01Q109.67 24.46 109.65 24.99Q109.64 25.52 109.64 26.04L109.64 26.04Q109.64 28.45 110.34 30.03Q111.04 31.61 112.16 32.34Q113.28 33.08 114.47 33.08L114.47 33.08Q115.27 33.08 116.11 32.83Q116.95 32.59 117.76 31.92Q118.56 31.25 119.23 30.03L119.23 30.03L119.89 30.31Q119.51 31.54 118.61 32.74Q117.72 33.95 116.32 34.72Q114.92 35.49 113.03 35.49L113.03 35.49Q110.65 35.49 108.83 34.44Q107.01 33.39 106.00 31.31Q104.98 29.23 104.98 26.21L104.98 26.21Q104.98 23.03 106.05 20.86Q107.12 18.69 109.01 17.55Q110.90 16.41 113.31 16.41ZM134.73 16.41L134.73 16.41Q136.20 16.41 137.09 16.80Q137.99 17.18 138.55 17.78L138.55 17.78Q139.18 18.44 139.44 19.49Q139.70 20.54 139.70 22.33L139.70 22.33L139.70 31.75Q139.70 33.22 140.24 33.74Q140.79 34.27 142.08 34.27L142.08 34.27L142.08 35Q141.45 34.97 140.14 34.91Q138.83 34.86 137.60 34.86L137.60 34.86Q136.31 34.86 135.08 34.91Q133.86 34.97 133.26 35L133.26 35L133.26 34.27Q134.38 34.27 134.84 33.74Q135.29 33.22 135.29 31.75L135.29 31.75L135.29 21.14Q135.29 20.20 135.12 19.44Q134.94 18.69 134.42 18.25Q133.89 17.81 132.91 17.81L132.91 17.81Q131.76 17.81 130.86 18.44Q129.97 19.07 129.46 20.18Q128.96 21.28 128.96 22.64L128.96 22.64L128.96 31.75Q128.96 33.22 129.41 33.74Q129.87 34.27 130.99 34.27L130.99 34.27L130.99 35Q130.39 34.97 129.20 34.91Q128.01 34.86 126.79 34.86L126.79 34.86Q125.49 34.86 124.16 34.91Q122.83 34.97 122.17 35L122.17 35L122.17 34.27Q123.46 34.27 124.00 33.74Q124.55 33.22 124.55 31.75L124.55 31.75L124.55 20.72Q124.55 19.14 124.04 18.39Q123.53 17.64 122.17 17.64L122.17 17.64L122.17 16.90Q123.29 17.01 124.34 17.01L124.34 17.01Q125.63 17.01 126.80 16.89Q127.98 16.76 128.96 16.52L128.96 16.52L128.96 20.02Q129.83 18.02 131.37 17.22Q132.91 16.41 134.73 16.41ZM160.21 7.59L160.21 7.59L160.21 31.18Q160.21 32.76 160.74 33.51Q161.26 34.27 162.59 34.27L162.59 34.27L162.59 35Q161.51 34.90 160.42 34.90L160.42 34.90Q159.13 34.90 157.97 35Q156.82 35.10 155.80 35.38L155.80 35.38L155.80 11.79Q155.80 10.22 155.29 9.47Q154.79 8.71 153.42 8.71L153.42 8.71L153.42 7.98Q154.54 8.08 155.59 8.08L155.59 8.08Q156.92 8.08 158.08 7.96Q159.23 7.84 160.21 7.59ZM151.85 16.41L151.85 16.41Q153.39 16.41 154.61 17.01Q155.84 17.60 156.43 19.00L156.43 19.00L156.01 19.35Q155.52 18.34 154.68 17.85Q153.84 17.36 152.79 17.36L152.79 17.36Q150.90 17.36 149.76 19.48Q148.63 21.59 148.63 25.97L148.63 25.97Q148.63 28.91 149.08 30.71Q149.54 32.52 150.39 33.32Q151.25 34.13 152.44 34.13L152.44 34.13Q153.70 34.13 154.72 33.09Q155.73 32.06 155.91 30.13L155.91 30.13L156.15 31.11Q155.70 33.25 154.44 34.37Q153.18 35.49 151.11 35.49L151.11 35.49Q149.01 35.49 147.38 34.46Q145.76 33.42 144.86 31.31Q143.97 29.19 143.97 25.93L143.97 25.93Q143.97 22.75 145.02 20.63Q146.07 18.51 147.86 17.46Q149.64 16.41 151.85 16.41Z"/></g>
                
            </svg>
        